<svg width="156" height="40" viewBox="0 0 156 40" fill="none" xmlns="http://www.w3.org/2000/svg">
<g clip-path="url(#clip0_2003_1059)">
<path d="M27.2002 0C31.6805 1.83567e-10 33.9206 0.000145529 35.6318 0.87207C37.1371 1.63906 38.3609 2.86287 39.1279 4.36816C39.9999 6.07943 40 8.31953 40 12.7998V27.2002C40 31.6805 39.9999 33.9206 39.1279 35.6318C38.3609 37.1371 37.1371 38.3609 35.6318 39.1279C33.9206 39.9999 31.6805 40 27.2002 40H12.7998C8.31953 40 6.07943 39.9999 4.36816 39.1279C2.86287 38.3609 1.63906 37.1371 0.87207 35.6318C0.000145529 33.9206 1.83567e-10 31.6805 0 27.2002V12.7998C1.83567e-10 8.31953 0.000145529 6.07943 0.87207 4.36816C1.63906 2.86287 2.86287 1.63906 4.36816 0.87207C6.07943 0.000145529 8.31953 1.83567e-10 12.7998 0H27.2002ZM20.877 10.0049L20.8379 10.0068L20.8281 10.0078L20.7588 10.0205L20.7334 10.0264L20.7227 10.0273C20.5846 10.0624 20.4555 10.1298 20.3457 10.2256L20.3389 10.2324L20.3125 10.2578L20.2744 10.2939L20.2627 10.3076L20.2539 10.3164L20.2373 10.3379L20.2061 10.376L20.1895 10.4004L20.1797 10.4131L12.6807 21.4121L12.624 21.5029C12.5424 21.655 12.4996 21.8277 12.5 22.0029C12.5005 22.1781 12.5446 22.3504 12.627 22.502C12.7093 22.6533 12.8275 22.7788 12.9697 22.8662C13.112 22.9536 13.2733 23 13.4375 23H18.125V28.999C18.125 29.9669 19.2878 30.3706 19.8203 29.5879L27.3193 18.5879L27.376 18.4971C27.4575 18.3451 27.5004 18.1731 27.5 17.998C27.4996 17.8229 27.4563 17.6505 27.374 17.499C27.2916 17.3474 27.1727 17.2213 27.0303 17.1338C26.888 17.0464 26.7267 17 26.5625 17H21.875V11.001L21.8711 10.9365L21.8691 10.8955L21.8682 10.8838C21.8475 10.6929 21.7765 10.518 21.6641 10.3711L21.6582 10.3623L21.6338 10.335L21.6006 10.2939L21.5869 10.2822L21.5801 10.2715L21.5586 10.2549L21.5234 10.2207L21.501 10.2041L21.4883 10.1924L21.4717 10.1807L21.4404 10.1572L21.4111 10.1396L21.3896 10.125L21.3691 10.1152L21.3486 10.1025L21.3115 10.0859L21.2852 10.0723L21.2715 10.0684L21.2529 10.0586L21.2051 10.0449L21.1777 10.0342L21.167 10.0332L21.1523 10.0273L21.1035 10.0186L21.0674 10.0098H21.0576L21.0469 10.0078L20.9697 10.0029L20.9541 10.002L20.9375 10.001L20.877 10.0049Z" fill="white"/>
</g>
<path d="M49.5234 29V12.0898H60.5977V15.0078H53.0625V19.543H59.9297V22.3438H53.0625V29H49.5234ZM60.428 29L66.3342 12.0898H69.4397V15.3945H68.3616L64.1545 29H60.428ZM63.6038 24.8984L64.4709 22.25H72.3459L73.2131 24.8984H63.6038ZM72.6741 29L68.467 15.3945V12.0898H70.4944L76.3889 29H72.6741ZM83.9536 29.3164C82.6098 29.3164 81.438 29.1211 80.438 28.7305C79.4458 28.332 78.6645 27.7656 78.0942 27.0312C77.5317 26.2891 77.2153 25.4023 77.145 24.3711L77.1333 24.1836H80.4848L80.5083 24.3125C80.5786 24.7422 80.77 25.1172 81.0825 25.4375C81.4028 25.75 81.813 25.9961 82.313 26.1758C82.8208 26.3555 83.395 26.4453 84.0356 26.4453C84.6919 26.4453 85.2583 26.3555 85.7348 26.1758C86.2114 25.9961 86.5786 25.7422 86.8364 25.4141C87.0942 25.0859 87.2231 24.707 87.2231 24.2773V24.2656C87.2231 23.7031 86.9966 23.2578 86.5434 22.9297C86.0981 22.6016 85.352 22.332 84.3052 22.1211L82.5122 21.7578C80.8325 21.4219 79.5747 20.8516 78.7388 20.0469C77.9028 19.2422 77.4848 18.2031 77.4848 16.9297V16.918C77.4927 15.8867 77.77 14.9883 78.3169 14.2227C78.8716 13.4492 79.6333 12.8477 80.602 12.418C81.5786 11.9883 82.688 11.7734 83.9302 11.7734C85.2427 11.7734 86.3716 11.9805 87.3169 12.3945C88.2622 12.8008 89.0005 13.375 89.5317 14.1172C90.0708 14.8594 90.3677 15.7188 90.4223 16.6953L90.4341 16.9062H87.0942L87.0825 16.7656C87.02 16.3203 86.852 15.9414 86.5786 15.6289C86.3052 15.3164 85.9419 15.0742 85.4888 14.9023C85.0434 14.7305 84.5239 14.6445 83.9302 14.6445C83.3364 14.6445 82.8208 14.7344 82.3833 14.9141C81.9536 15.0859 81.6177 15.3242 81.3755 15.6289C81.1411 15.9336 81.0239 16.2891 81.0239 16.6953V16.707C81.0239 17.2461 81.2505 17.6797 81.7036 18.0078C82.1567 18.3359 82.8716 18.6016 83.8481 18.8047L85.6294 19.168C86.8169 19.4023 87.7895 19.7266 88.5473 20.1406C89.3052 20.5547 89.8638 21.0781 90.2231 21.7109C90.5825 22.3359 90.7622 23.0898 90.7622 23.9727V23.9844C90.7622 25.0703 90.4888 26.0156 89.9419 26.8203C89.4028 27.6172 88.6255 28.2344 87.6098 28.6719C86.5942 29.1016 85.3755 29.3164 83.9536 29.3164ZM96.5925 29V15.0078H91.6706V12.0898H105.053V15.0078H100.132V29H96.5925ZM113.538 23.668V20.9023H117.734C118.749 20.9023 119.538 20.6445 120.101 20.1289C120.663 19.6055 120.945 18.8633 120.945 17.9023V17.8789C120.945 16.918 120.663 16.1797 120.101 15.6641C119.538 15.1484 118.749 14.8906 117.734 14.8906H113.538V12.0898H118.589C119.784 12.0898 120.823 12.332 121.706 12.8164C122.597 13.293 123.288 13.9648 123.78 14.832C124.28 15.6992 124.53 16.7109 124.53 17.8672V17.8906C124.53 19.0547 124.28 20.0703 123.78 20.9375C123.288 21.8047 122.597 22.4766 121.706 22.9531C120.823 23.4297 119.784 23.668 118.589 23.668H113.538ZM111.769 29V12.0898H115.308V29H111.769ZM126.599 29V12.0898H133.091C134.779 12.0898 136.22 12.418 137.415 13.0742C138.619 13.7227 139.537 14.668 140.169 15.9102C140.81 17.1523 141.13 18.6641 141.13 20.4453V20.4688C141.13 22.2656 140.81 23.8008 140.169 25.0742C139.537 26.3477 138.622 27.3203 137.427 27.9922C136.232 28.6641 134.787 29 133.091 29H126.599ZM130.138 26.082H132.646C133.701 26.082 134.587 25.8711 135.306 25.4492C136.033 25.0195 136.583 24.3906 136.958 23.5625C137.333 22.7344 137.521 21.7109 137.521 20.4922V20.4688C137.521 19.2969 137.33 18.3047 136.947 17.4922C136.564 16.6797 136.009 16.0625 135.283 15.6406C134.556 15.2188 133.677 15.0078 132.646 15.0078H130.138V26.082ZM143.375 29V12.0898H154.449V15.0078H146.914V19.543H153.781V22.3438H146.914V29H143.375Z" fill="white"/>
<defs>
<clipPath id="clip0_2003_1059">
<rect width="40" height="40" rx="8" fill="white"/>
</clipPath>
</defs>
</svg>
