<svg width="28" height="28" viewBox="0 0 28 28" fill="none" xmlns="http://www.w3.org/2000/svg">
<path opacity="0.4" d="M17.223 7.86621C17.9288 7.86624 18.6065 8.14438 19.1 8.63965C19.597 9.13959 19.8726 9.81174 19.8715 10.5107V11.9629C19.8656 12.1332 19.7268 12.2716 19.5531 12.2764H8.44568C8.2732 12.2704 8.13472 12.1321 8.13123 11.9629V10.5107C8.11839 9.06354 9.30402 7.88108 10.7787 7.86621H17.223ZM20.059 3.5C22.622 3.5 24.7062 5.54338 24.7064 8.05664V10.2227C24.7064 10.7032 24.3089 11.0947 23.8177 11.0947C23.328 11.0945 22.9301 10.703 22.9301 10.2227V8.05664C22.9298 6.50437 21.642 5.24121 20.059 5.24121H18.2006C17.7106 5.24114 17.3129 4.85252 17.3129 4.37207C17.3129 3.89049 17.7106 3.50007 18.2006 3.5H20.059ZM9.8324 3.5C10.3224 3.50005 10.7201 3.89046 10.7201 4.37207C10.7199 4.85239 10.3234 5.24214 9.8324 5.24219L7.93201 5.24316C6.35467 5.24545 5.07068 6.50583 5.07068 8.05371V10.2227C5.07051 10.703 4.6719 11.0938 4.18201 11.0938C3.69218 11.0937 3.29448 10.703 3.29431 10.2227V8.05371C3.29431 5.54599 5.37486 3.50326 7.93103 3.50098L9.83142 3.5H9.8324Z" fill="white"/>
<path d="M25.9455 14.0482H2.05563C1.56563 14.0482 1.16663 14.4383 1.16663 14.9199C1.16663 15.4004 1.56563 15.7894 2.05563 15.7894H3.29346V19.9468C3.29346 22.4545 5.37479 24.4966 7.93096 24.4989L9.83146 24.5C10.3226 24.5 10.7193 24.1099 10.7205 23.6283C10.7205 23.1478 10.3226 22.7577 9.83263 22.7577L7.93329 22.7565C6.35479 22.7543 5.07029 21.4947 5.07029 19.9468V15.7894H8.13046V16.946C8.11879 18.3932 9.30296 19.5761 10.7776 19.5899H17.2223C18.6981 19.5761 19.8823 18.3932 19.8706 16.946V15.7894H22.9308V19.9422C22.9308 21.4958 21.6428 22.7577 20.0596 22.7577H18.2011C17.71 22.7577 17.3121 23.1478 17.3121 23.6283C17.3121 24.1099 17.71 24.5 18.2011 24.5H20.0596C22.6216 24.5 24.7065 22.4568 24.7065 19.9422V15.7894H25.9455C26.4355 15.7894 26.8333 15.4004 26.8333 14.9199C26.8333 14.4383 26.4355 14.0482 25.9455 14.0482Z" fill="white"/>
</svg>
