<svg width="24" height="24" viewBox="0 0 24 24" fill="none" xmlns="http://www.w3.org/2000/svg">
<g clip-path="url(#clip0_27_25627)">
<path d="M12.5 17.6398L20.1966 13.1961C20.656 12.9309 20.9912 12.4941 21.1285 11.9817C21.2658 11.4694 21.1939 10.9235 20.9287 10.4641L16.9287 3.53588C16.6635 3.07652 16.2266 2.74132 15.7143 2.60403C15.2019 2.46675 14.656 2.53862 14.1966 2.80383L6.5 7.24748M12.5 17.6398L9.80432 19.1961C9.34495 19.4614 8.79904 19.5332 8.28668 19.3959C7.77432 19.2587 7.33748 18.9235 7.07227 18.4641L3.07227 11.5359C2.80705 11.0765 2.73518 10.5306 2.87246 10.0182C3.00975 9.50589 3.34495 9.06905 3.80432 8.80383L6.5 7.24748M12.5 17.6398L6.5 7.24748" stroke="#5D5D5D" stroke-width="2" stroke-linecap="round" stroke-linejoin="round"/>
</g>
<defs>
<clipPath id="clip0_27_25627">
<rect width="24" height="24" fill="white"/>
</clipPath>
</defs>
</svg>
