<svg width="24" height="24" viewBox="0 0 24 24" fill="none" xmlns="http://www.w3.org/2000/svg">
<g clip-path="url(#clip0_16_21165)">
<path d="M4 7V6C4 5.46957 4.21071 4.96086 4.58579 4.58579C4.96086 4.21071 5.46957 4 6 4H8" stroke="url(#paint0_linear_16_21165)" stroke-width="2" stroke-linecap="round" stroke-linejoin="round"/>
<path d="M4 17V18C4 18.5304 4.21071 19.0391 4.58579 19.4142C4.96086 19.7893 5.46957 20 6 20H8" stroke="url(#paint1_linear_16_21165)" stroke-width="2" stroke-linecap="round" stroke-linejoin="round"/>
<path d="M16 4H18C18.5304 4 19.0391 4.21071 19.4142 4.58579C19.7893 4.96086 20 5.46957 20 6V7" stroke="url(#paint2_linear_16_21165)" stroke-width="2" stroke-linecap="round" stroke-linejoin="round"/>
<path d="M16 20H18C18.5304 20 19.0391 19.7893 19.4142 19.4142C19.7893 19.0391 20 18.5304 20 18V17" stroke="url(#paint3_linear_16_21165)" stroke-width="2" stroke-linecap="round" stroke-linejoin="round"/>
<path d="M5 12H19" stroke="url(#paint4_linear_16_21165)" stroke-width="2" stroke-linecap="round" stroke-linejoin="round"/>
</g>
<defs>
<linearGradient id="paint0_linear_16_21165" x1="6" y1="4" x2="6" y2="7" gradientUnits="userSpaceOnUse">
<stop stop-color="#55A4FF"/>
<stop offset="1" stop-color="#3B96FF"/>
</linearGradient>
<linearGradient id="paint1_linear_16_21165" x1="6" y1="17" x2="6" y2="20" gradientUnits="userSpaceOnUse">
<stop stop-color="#55A4FF"/>
<stop offset="1" stop-color="#3B96FF"/>
</linearGradient>
<linearGradient id="paint2_linear_16_21165" x1="18" y1="4" x2="18" y2="7" gradientUnits="userSpaceOnUse">
<stop stop-color="#55A4FF"/>
<stop offset="1" stop-color="#3B96FF"/>
</linearGradient>
<linearGradient id="paint3_linear_16_21165" x1="18" y1="17" x2="18" y2="20" gradientUnits="userSpaceOnUse">
<stop stop-color="#55A4FF"/>
<stop offset="1" stop-color="#3B96FF"/>
</linearGradient>
<linearGradient id="paint4_linear_16_21165" x1="12" y1="12" x2="12" y2="13" gradientUnits="userSpaceOnUse">
<stop stop-color="#55A4FF"/>
<stop offset="1" stop-color="#3B96FF"/>
</linearGradient>
<clipPath id="clip0_16_21165">
<rect width="24" height="24" fill="white"/>
</clipPath>
</defs>
</svg>
