<svg width="24" height="24" viewBox="0 0 24 24" fill="none" xmlns="http://www.w3.org/2000/svg">
<path d="M14.4975 5.9775L15.5963 6.375C16.545 6.71625 17.2838 7.455 17.625 8.40375L18.0225 9.5025C18.075 9.6525 18.2175 9.75 18.375 9.75C18.5325 9.75 18.675 9.6525 18.7275 9.5025L19.125 8.40375C19.4662 7.455 20.205 6.71625 21.1537 6.375L22.2525 5.9775C22.4025 5.925 22.5 5.7825 22.5 5.625C22.5 5.4675 22.4025 5.325 22.2525 5.2725L21.1537 4.875C20.205 4.53375 19.4662 3.795 19.125 2.84625L18.7275 1.7475C18.675 1.5975 18.5325 1.5 18.375 1.5C18.2175 1.5 18.075 1.5975 18.0225 1.7475L17.625 2.84625C17.2838 3.795 16.545 4.53375 15.5963 4.875L14.4975 5.2725C14.3475 5.325 14.25 5.4675 14.25 5.625C14.25 5.7825 14.3475 5.925 14.4975 5.9775ZM15.8513 5.58C17.01 5.16375 17.9138 4.26 18.33 3.10125L18.375 2.98125L18.42 3.10125C18.8362 4.26 19.74 5.16375 20.8987 5.58L21.0187 5.625L20.8987 5.67C19.74 6.08625 18.8362 6.99 18.42 8.14875L18.375 8.26875L18.33 8.14875C17.9138 6.99 17.01 6.08625 15.8513 5.67L15.7313 5.625L15.8513 5.58Z" fill="#5D5D5D" stroke="#5D5D5D" stroke-width="0.3"/>
<path d="M1.48 12.6836L3.61091 13.4545C5.45091 14.1164 6.88364 15.5491 7.54545 17.3891L8.31636 19.52C8.41818 19.8109 8.69455 20 9 20C9.30546 20 9.58182 19.8109 9.68364 19.52L10.4545 17.3891C11.1164 15.5491 12.5491 14.1164 14.3891 13.4545L16.52 12.6836C16.8109 12.5818 17 12.3055 17 12C17 11.6945 16.8109 11.4182 16.52 11.3164L14.3891 10.5455C12.5491 9.88364 11.1164 8.45091 10.4545 6.61091L9.68364 4.48C9.58182 4.18909 9.30546 4 9 4C8.69455 4 8.41818 4.18909 8.31636 4.48L7.54545 6.61091C6.88364 8.45091 5.45091 9.88364 3.61091 10.5455L1.48 11.3164C1.18909 11.4182 1 11.6945 1 12C1 12.3055 1.18909 12.5818 1.48 12.6836ZM4.10545 11.9127C6.35273 11.1055 8.10546 9.35273 8.91273 7.10545L9 6.87273L9.08727 7.10545C9.89454 9.35273 11.6473 11.1055 13.8945 11.9127L14.1273 12L13.8945 12.0873C11.6473 12.8945 9.89454 14.6473 9.08727 16.8945L9 17.1273L8.91273 16.8945C8.10546 14.6473 6.35273 12.8945 4.10545 12.0873L3.87273 12L4.10545 11.9127Z" fill="#5D5D5D"/>
<path d="M15.24 19.3418L16.3055 19.7273C17.2255 20.0582 17.9418 20.7745 18.2727 21.6945L18.6582 22.76C18.7091 22.9055 18.8473 23 19 23C19.1527 23 19.2909 22.9055 19.3418 22.76L19.7273 21.6945C20.0582 20.7745 20.7745 20.0582 21.6945 19.7273L22.76 19.3418C22.9055 19.2909 23 19.1527 23 19C23 18.8473 22.9055 18.7091 22.76 18.6582L21.6945 18.2727C20.7745 17.9418 20.0582 17.2255 19.7273 16.3055L19.3418 15.24C19.2909 15.0945 19.1527 15 19 15C18.8473 15 18.7091 15.0945 18.6582 15.24L18.2727 16.3055C17.9418 17.2255 17.2255 17.9418 16.3055 18.2727L15.24 18.6582C15.0945 18.7091 15 18.8473 15 19C15 19.1527 15.0945 19.2909 15.24 19.3418ZM16.5527 18.9564C17.6764 18.5527 18.5527 17.6764 18.9564 16.5527L19 16.4364L19.0436 16.5527C19.4473 17.6764 20.3236 18.5527 21.4473 18.9564L21.5636 19L21.4473 19.0436C20.3236 19.4473 19.4473 20.3236 19.0436 21.4473L19 21.5636L18.9564 21.4473C18.5527 20.3236 17.6764 19.4473 16.5527 19.0436L16.4364 19L16.5527 18.9564Z" fill="#5D5D5D" stroke="#5D5D5D" stroke-width="0.3"/>
</svg>
