<svg width="20" height="20" viewBox="0 0 20 20" fill="none" xmlns="http://www.w3.org/2000/svg">
<path fill-rule="evenodd" clip-rule="evenodd" d="M2.66108 6.35298L3.17976 5.4529C3.61858 4.6913 4.59103 4.42856 5.35368 4.86556V4.86556C5.71671 5.07942 6.14989 5.14009 6.5577 5.0342C6.96552 4.92832 7.31446 4.66456 7.52759 4.30111C7.6647 4.07009 7.73838 3.80696 7.74117 3.53833V3.53833C7.7288 3.10765 7.89128 2.6903 8.19161 2.38136C8.49193 2.07241 8.90451 1.89818 9.33537 1.89836H10.3804C10.8025 1.89836 11.2072 2.06656 11.505 2.36575C11.8027 2.66494 11.969 3.07046 11.967 3.49256V3.49256C11.9795 4.36407 12.6896 5.06397 13.5612 5.06388C13.8298 5.06109 14.0929 4.98742 14.3239 4.85031V4.85031C15.0866 4.41331 16.059 4.67604 16.4978 5.43764L17.0547 6.35298C17.493 7.11363 17.2338 8.08547 16.475 8.52689V8.52689C15.9817 8.81167 15.6778 9.33796 15.6778 9.90751C15.6778 10.4771 15.9817 11.0034 16.475 11.2881V11.2881C17.2328 11.7266 17.4923 12.6961 17.0547 13.4544V13.4544L16.5284 14.3621C16.3228 14.7331 15.9778 15.0069 15.5698 15.1228C15.1618 15.2388 14.7244 15.1874 14.3544 14.98V14.98C13.9907 14.7677 13.5573 14.7096 13.1505 14.8185C12.7437 14.9273 12.3973 15.1942 12.1882 15.5597C12.051 15.7907 11.9774 16.0538 11.9746 16.3225V16.3225C11.9746 17.2029 11.2608 17.9167 10.3804 17.9167H9.33537C8.45789 17.9167 7.74537 17.2076 7.74117 16.3301V16.3301C7.74321 15.9067 7.5759 15.5 7.27649 15.2006C6.97708 14.9012 6.5704 14.7339 6.14697 14.7359C5.87898 14.7431 5.61693 14.8164 5.38419 14.9495V14.9495C4.62354 15.3877 3.6517 15.1286 3.21028 14.3698V14.3698L2.66108 13.4544C2.4485 13.0895 2.39015 12.655 2.49896 12.2469C2.60777 11.8389 2.87475 11.4911 3.24079 11.2805V11.2805C3.60682 11.0699 3.87381 10.7221 3.98262 10.3141C4.09142 9.90605 4.03308 9.47148 3.8205 9.1066C3.68226 8.86524 3.48214 8.66513 3.24079 8.52689V8.52689C2.4865 8.08571 2.22795 7.11954 2.66108 6.3606V6.3606V6.35298Z" stroke="#929292" stroke-width="1.5" stroke-linecap="round" stroke-linejoin="round"/>
<ellipse opacity="0.4" cx="2.1968" cy="2.1968" rx="2.1968" ry="2.1968" transform="matrix(-1 0 0 1 12.0509 7.71072)" stroke="#929292" stroke-width="1.5" stroke-linecap="round" stroke-linejoin="round"/>
</svg>
