<svg width="62" height="62" viewBox="0 0 62 62" fill="none" xmlns="http://www.w3.org/2000/svg">
<rect width="62" height="62" rx="31" fill="white" fill-opacity="0.25"/>
<g clip-path="url(#clip0_27_25619)">
<path d="M31 40C28.6131 40 26.3239 39.0518 24.636 37.364C22.9482 35.6761 22 33.3869 22 31C22 28.6131 22.9482 26.3239 24.636 24.636C26.3239 22.9482 28.6131 22 31 22C35.97 22 40 25.582 40 30C40 31.06 39.526 32.078 38.682 32.828C37.838 33.578 36.693 34 35.5 34H33C32.5539 33.9928 32.1181 34.135 31.7621 34.404C31.4061 34.673 31.1503 35.0533 31.0353 35.4844C30.9203 35.9155 30.9528 36.3727 31.1276 36.7833C31.3025 37.1938 31.6095 37.5341 32 37.75C32.1997 37.9342 32.3366 38.1764 32.3915 38.4425C32.4465 38.7085 32.4167 38.9851 32.3064 39.2334C32.196 39.4816 32.0107 39.6891 31.7764 39.8266C31.5421 39.9641 31.2705 40.0247 31 40Z" stroke="#5D5D5D" stroke-width="2" stroke-linecap="round" stroke-linejoin="round"/>
<path d="M26.5 29.5C26.5 29.7652 26.6054 30.0196 26.7929 30.2071C26.9804 30.3946 27.2348 30.5 27.5 30.5C27.7652 30.5 28.0196 30.3946 28.2071 30.2071C28.3946 30.0196 28.5 29.7652 28.5 29.5C28.5 29.2348 28.3946 28.9804 28.2071 28.7929C28.0196 28.6054 27.7652 28.5 27.5 28.5C27.2348 28.5 26.9804 28.6054 26.7929 28.7929C26.6054 28.9804 26.5 29.2348 26.5 29.5Z" stroke="#5D5D5D" stroke-width="2" stroke-linecap="round" stroke-linejoin="round"/>
<path d="M30.5 26.5C30.5 26.7652 30.6054 27.0196 30.7929 27.2071C30.9804 27.3946 31.2348 27.5 31.5 27.5C31.7652 27.5 32.0196 27.3946 32.2071 27.2071C32.3946 27.0196 32.5 26.7652 32.5 26.5C32.5 26.2348 32.3946 25.9804 32.2071 25.7929C32.0196 25.6054 31.7652 25.5 31.5 25.5C31.2348 25.5 30.9804 25.6054 30.7929 25.7929C30.6054 25.9804 30.5 26.2348 30.5 26.5Z" stroke="#5D5D5D" stroke-width="2" stroke-linecap="round" stroke-linejoin="round"/>
<path d="M34.5 29.5C34.5 29.7652 34.6054 30.0196 34.7929 30.2071C34.9804 30.3946 35.2348 30.5 35.5 30.5C35.7652 30.5 36.0196 30.3946 36.2071 30.2071C36.3946 30.0196 36.5 29.7652 36.5 29.5C36.5 29.2348 36.3946 28.9804 36.2071 28.7929C36.0196 28.6054 35.7652 28.5 35.5 28.5C35.2348 28.5 34.9804 28.6054 34.7929 28.7929C34.6054 28.9804 34.5 29.2348 34.5 29.5Z" stroke="#5D5D5D" stroke-width="2" stroke-linecap="round" stroke-linejoin="round"/>
</g>
<defs>
<clipPath id="clip0_27_25619">
<rect width="24" height="24" fill="white" transform="translate(19 19)"/>
</clipPath>
</defs>
</svg>
