<svg width="62" height="62" viewBox="0 0 62 62" fill="none" xmlns="http://www.w3.org/2000/svg">
<rect width="62" height="62" rx="31" fill="white" fill-opacity="0.25"/>
<path d="M31.5 36.6398L39.1966 32.1961C39.656 31.9309 39.9912 31.4941 40.1285 30.9817C40.2658 30.4694 40.1939 29.9235 39.9287 29.4641L35.9287 22.5359C35.6635 22.0765 35.2266 21.7413 34.7143 21.604C34.2019 21.4667 33.656 21.5386 33.1966 21.8038L25.5 26.2475M31.5 36.6398L28.8043 38.1961C28.3449 38.4614 27.799 38.5332 27.2867 38.3959C26.7743 38.2587 26.3375 37.9235 26.0723 37.4641L22.0723 30.5359C21.807 30.0765 21.7352 29.5306 21.8725 29.0182C22.0098 28.5059 22.3449 28.069 22.8043 27.8038L25.5 26.2475M31.5 36.6398L25.5 26.2475" stroke="#5D5D5D" stroke-width="2" stroke-linecap="round" stroke-linejoin="round"/>
</svg>
