<svg width="402" height="874" viewBox="0 0 402 874" fill="none" xmlns="http://www.w3.org/2000/svg">
<line opacity="0.5" x1="40.7" y1="-2.18557e-08" x2="40.7" y2="874" stroke="#DADADA"/>
<line opacity="0.5" x1="80.8999" y1="-2.18557e-08" x2="80.8999" y2="874" stroke="#DADADA"/>
<line opacity="0.5" x1="121.1" y1="-2.23441e-08" x2="121.1" y2="874" stroke="#DADADA"/>
<line opacity="0.5" x1="161.3" y1="-2.23441e-08" x2="161.3" y2="874" stroke="#DADADA"/>
<line opacity="0.5" x1="201.5" y1="-2.23441e-08" x2="201.5" y2="874" stroke="#DADADA"/>
<line opacity="0.5" x1="241.7" y1="-2.23441e-08" x2="241.7" y2="874" stroke="#DADADA"/>
<line opacity="0.5" x1="281.9" y1="-2.23441e-08" x2="281.9" y2="874" stroke="#DADADA"/>
<line opacity="0.5" x1="322.1" y1="-2.23441e-08" x2="322.1" y2="874" stroke="#DADADA"/>
<line opacity="0.5" x1="362.3" y1="-2.18557e-08" x2="362.3" y2="874" stroke="#DADADA"/>
<line opacity="0.4" x1="401.5" y1="42.1191" x2="0.5" y2="42.119" stroke="#DADADA" stroke-linecap="round" stroke-dasharray="4 4"/>
<line opacity="0.4" x1="401.5" y1="83.7381" x2="0.5" y2="83.7381" stroke="#DADADA" stroke-linecap="round" stroke-dasharray="4 4"/>
<line opacity="0.4" x1="401.5" y1="125.357" x2="0.5" y2="125.357" stroke="#DADADA" stroke-linecap="round" stroke-dasharray="4 4"/>
<line opacity="0.4" x1="401.5" y1="166.976" x2="0.5" y2="166.976" stroke="#DADADA" stroke-linecap="round" stroke-dasharray="4 4"/>
<line opacity="0.4" x1="401.5" y1="208.595" x2="0.5" y2="208.595" stroke="#DADADA" stroke-linecap="round" stroke-dasharray="4 4"/>
<line opacity="0.4" x1="401.5" y1="250.214" x2="0.5" y2="250.214" stroke="#DADADA" stroke-linecap="round" stroke-dasharray="4 4"/>
<line opacity="0.4" x1="401.5" y1="291.833" x2="0.5" y2="291.833" stroke="#DADADA" stroke-linecap="round" stroke-dasharray="4 4"/>
<line opacity="0.4" x1="401.5" y1="333.452" x2="0.5" y2="333.452" stroke="#DADADA" stroke-linecap="round" stroke-dasharray="4 4"/>
<line opacity="0.4" x1="401.5" y1="375.071" x2="0.5" y2="375.071" stroke="#DADADA" stroke-linecap="round" stroke-dasharray="4 4"/>
<line opacity="0.4" x1="401.5" y1="416.69" x2="0.5" y2="416.69" stroke="#DADADA" stroke-linecap="round" stroke-dasharray="4 4"/>
<line opacity="0.4" x1="401.5" y1="458.31" x2="0.5" y2="458.31" stroke="#DADADA" stroke-linecap="round" stroke-dasharray="4 4"/>
<line opacity="0.4" x1="401.5" y1="499.929" x2="0.5" y2="499.929" stroke="#DADADA" stroke-linecap="round" stroke-dasharray="4 4"/>
<line opacity="0.4" x1="401.5" y1="541.548" x2="0.5" y2="541.548" stroke="#DADADA" stroke-linecap="round" stroke-dasharray="4 4"/>
<line opacity="0.4" x1="401.5" y1="583.167" x2="0.5" y2="583.167" stroke="#DADADA" stroke-linecap="round" stroke-dasharray="4 4"/>
<line opacity="0.4" x1="401.5" y1="624.786" x2="0.5" y2="624.786" stroke="#DADADA" stroke-linecap="round" stroke-dasharray="4 4"/>
<line opacity="0.4" x1="401.5" y1="666.405" x2="0.5" y2="666.405" stroke="#DADADA" stroke-linecap="round" stroke-dasharray="4 4"/>
<line opacity="0.4" x1="401.5" y1="708.024" x2="0.5" y2="708.024" stroke="#DADADA" stroke-linecap="round" stroke-dasharray="4 4"/>
<line opacity="0.4" x1="401.5" y1="749.643" x2="0.5" y2="749.643" stroke="#DADADA" stroke-linecap="round" stroke-dasharray="4 4"/>
<line opacity="0.4" x1="401.5" y1="791.262" x2="0.5" y2="791.262" stroke="#DADADA" stroke-linecap="round" stroke-dasharray="4 4"/>
<line opacity="0.4" x1="401.5" y1="832.881" x2="0.5" y2="832.881" stroke="#DADADA" stroke-linecap="round" stroke-dasharray="4 4"/>
</svg>
