<svg width="62" height="62" viewBox="0 0 62 62" fill="none" xmlns="http://www.w3.org/2000/svg">
<rect width="62" height="62" rx="31" fill="white" fill-opacity="0.25"/>
<g clip-path="url(#clip0_27_25552)">
<path d="M23 39.0001H27L37.5 28.5001C37.7626 28.2374 37.971 27.9256 38.1131 27.5824C38.2553 27.2393 38.3284 26.8715 38.3284 26.5001C38.3284 26.1286 38.2553 25.7608 38.1131 25.4177C37.971 25.0745 37.7626 24.7627 37.5 24.5001C37.2374 24.2374 36.9256 24.0291 36.5824 23.8869C36.2392 23.7448 35.8714 23.6716 35.5 23.6716C35.1286 23.6716 34.7608 23.7448 34.4176 23.8869C34.0744 24.0291 33.7626 24.2374 33.5 24.5001L23 35.0001V39.0001Z" stroke="#5D5D5D" stroke-width="2" stroke-linecap="round" stroke-linejoin="round"/>
<path d="M32.5 25.5L36.5 29.5" stroke="#5D5D5D" stroke-width="2" stroke-linecap="round" stroke-linejoin="round"/>
<path d="M38 35L36 38H40L38 41" stroke="#5D5D5D" stroke-width="2" stroke-linecap="round" stroke-linejoin="round"/>
</g>
<defs>
<clipPath id="clip0_27_25552">
<rect width="24" height="24" fill="white" transform="translate(19 19)"/>
</clipPath>
</defs>
</svg>
