<svg width="24" height="24" viewBox="0 0 24 24" fill="none" xmlns="http://www.w3.org/2000/svg">
<path d="M12.5 17.6397L20.1966 13.196C20.656 12.9308 20.9912 12.494 21.1285 11.9816C21.2658 11.4692 21.1939 10.9233 20.9287 10.464L16.9287 3.53576C16.6635 3.07639 16.2266 2.7412 15.7143 2.60391C15.2019 2.46662 14.656 2.53849 14.1966 2.80371L6.5 7.24736M12.5 17.6397L9.80432 19.196C9.34495 19.4612 8.79904 19.5331 8.28668 19.3958C7.77432 19.2585 7.33748 18.9233 7.07227 18.464L3.07227 11.5358C2.80705 11.0764 2.73518 10.5305 2.87246 10.0181C3.00975 9.50576 3.34495 9.06893 3.80432 8.80371L6.5 7.24736M12.5 17.6397L6.5 7.24736" stroke="#929292" stroke-width="2" stroke-linecap="round" stroke-linejoin="round"/>
</svg>
